<svg xmlns:xlink="http://www.w3.org/1999/xlink" xmlns="http://www.w3.org/2000/svg" width="1440" height="300" viewBox="0 0 1440 300" fill="none">
<path opacity="0.4" d="M0 0V299.162C96 274.39 192 260.063 288 256.181C384 252.299 480 231.769 576 194.588C672 157.408 768 145.547 864 159.005C960 172.463 1056 151.843 1152 97.1466C1248 42.4499 1344 25.1364 1440 45.206V0H0Z" fill="url(#paint0_linear_571_4362)"/>
<path opacity="0.4" d="M0 0V300C96 258.215 192 233.058 288 224.528C384 215.999 480 205.482 576 192.977C672 180.471 768 167.616 864 154.412C960 141.207 1056 126.151 1152 109.246C1248 92.3401 1344 72.3019 1440 49.1311V0H0Z" fill="url(#paint1_linear_571_4362)"/>
<path opacity="0.4" d="M0 0V281.827C96 254.02 192 237.069 288 230.972C384 224.875 480 207.839 576 179.865C672 151.89 768 144.542 864 157.82C960 171.097 1056 149.006 1152 91.5446C1248 34.0834 1344 19.332 1440 47.2905V0H0Z" fill="url(#paint2_linear_571_4362)"/>
<path opacity="0.4" d="M0 0V273.169C96 269.475 184 279.883 280 273.169C376 266.456 442 253.544 538 220.5C634 187.456 758 196.703 854 193.5C950 190.297 1056.5 146.534 1152.5 139.5C1248.5 132.466 1344 97.9715 1440 58.6298V0H0Z" fill="url(#paint3_linear_571_4362)"/>
<path d="M998.78 83.4318C999.262 83.5872 999.775 83.671 1000.31 83.671C1000.84 83.671 1001.35 83.5872 1001.83 83.4318L1001.83 168.345L998.78 169.067V83.4318Z" stroke="#C1C1C1"/>
<path d="M1002.81 74.5034C1002.74 74.4632 1002.67 74.4245 1002.61 74.3876C1002.71 74.2157 1002.83 73.998 1002.99 73.7371C1003.41 73.0132 1004.02 71.9575 1004.8 70.6307C1006.35 67.9772 1008.55 64.2393 1011.11 59.9022C1016.07 51.5211 1022.4 40.9044 1028.16 31.5512C1028.25 32.1045 1028.27 32.7437 1028.24 33.4648C1028.17 34.6932 1027.93 36.1236 1027.53 37.7072C1026.74 40.8746 1025.37 44.6048 1023.71 48.4692C1020.41 56.1425 1016.01 64.2851 1012.94 69.4822L1003.65 75.1578C1003.4 74.9145 1003.11 74.6946 1002.81 74.5034ZM962.062 73.7825C970.369 72.8125 979.634 72.56 985.679 72.626L995.319 77.8672C995.247 78.284 995.23 78.705 995.265 79.1201C986.634 79.135 966.935 79.0033 945.165 78.3595C945.599 78.0077 946.14 77.6674 946.783 77.3409C947.88 76.7839 949.243 76.2828 950.814 75.8351C953.955 74.9395 957.879 74.2709 962.062 73.7825ZM1014.7 114.295C1009.69 107.591 1004.83 99.7009 1001.85 94.4378L1001.56 83.4828C1001.96 83.3688 1002.35 83.2036 1002.72 82.9893C1007.08 90.4913 1016.82 107.546 1027.14 126.634C1026.62 126.433 1026.05 126.135 1025.45 125.742C1024.41 125.07 1023.3 124.141 1022.12 123.005C1019.77 120.733 1017.22 117.671 1014.7 114.295ZM1002.88 80.3697C1001.97 81.8452 1000.04 82.3028 998.555 81.3889C997.074 80.475 996.615 78.5375 997.526 77.0621C998.436 75.5866 1000.37 75.129 1001.85 76.0429C1003.34 76.9568 1003.8 78.8943 1002.88 80.3697Z" stroke="#C1C1C1"/>
<path d="M1112.32 81.7426C1112.32 81.685 1112.32 81.6276 1112.32 81.5705C1120.25 81.3536 1138.01 81.0166 1157.64 81.0912C1157.27 81.3966 1156.81 81.6956 1156.28 81.9865C1155.3 82.5212 1154.07 83.0117 1152.65 83.4588C1149.82 84.3529 1146.26 85.0579 1142.47 85.6042C1134.93 86.6882 1126.52 87.1382 1121.01 87.2206L1112.22 82.6918C1112.29 82.3854 1112.32 82.0678 1112.32 81.7426ZM1093.44 49.5836C1098.14 55.6065 1102.73 62.7196 1105.56 67.474L1106.06 77.4705C1105.72 77.607 1105.41 77.7826 1105.12 77.9915C1101 71.2453 1091.78 55.863 1081.98 38.6191C1082.42 38.7888 1082.9 39.0334 1083.42 39.3524C1084.37 39.9417 1085.41 40.7655 1086.5 41.7781C1088.69 43.8033 1091.07 46.5485 1093.44 49.5836ZM1087.01 110.049C1089.84 102.942 1093.67 95.3793 1096.35 90.5425L1104.7 85.1091C1104.96 85.3538 1105.26 85.5672 1105.58 85.7434C1101.81 92.7391 1093.21 108.413 1083.31 125.523C1083.23 125.049 1083.2 124.508 1083.22 123.9C1083.25 122.775 1083.44 121.461 1083.76 120.001C1084.41 117.081 1085.58 113.631 1087.01 110.049ZM1107.75 84.5628C1106.2 84.5556 1104.94 83.2807 1104.95 81.7085C1104.95 80.1362 1106.22 78.873 1107.78 78.8802C1109.33 78.8874 1110.59 80.1623 1110.59 81.7345C1110.58 83.3068 1109.31 84.57 1107.75 84.5628Z" stroke="#C1C1C1"/>
<path d="M1106.32 86.0667C1106.75 86.1986 1107.2 86.2696 1107.68 86.2696C1108.15 86.2696 1108.6 86.1986 1109.03 86.0667V144.119L1106.32 144.605V86.0667Z" stroke="#C1C1C1"/>
<path d="M877.933 91.163C877.769 91.163 877.605 91.1691 877.444 91.1811C877.066 79.2924 876.428 52.1078 876.413 22.105C877.033 22.7504 877.632 23.608 878.205 24.6633C879.015 26.1573 879.758 28.0155 880.434 30.1553C881.786 34.4349 882.86 39.7917 883.698 45.504C885.364 56.8694 886.09 69.5779 886.248 77.8602L879.472 91.3457C878.978 91.2262 878.463 91.163 877.933 91.163ZM830.182 119.343C839.121 112.207 849.686 105.221 856.729 100.942L871.794 100.104C872.033 100.738 872.365 101.326 872.774 101.849C862.842 108.062 839.656 122.293 813.701 137.402C813.945 136.536 814.385 135.583 815.007 134.553C815.887 133.099 817.113 131.522 818.615 129.863C821.619 126.544 825.689 122.929 830.182 119.343ZM880.188 103.971V191.196C880.18 191.197 880.171 191.198 880.163 191.199C879.869 191.236 879.447 191.286 878.937 191.342C878.046 191.438 876.889 191.551 875.678 191.632V103.971C876.381 104.23 877.141 104.372 877.933 104.372C878.725 104.372 879.485 104.23 880.188 103.971ZM920.035 129.027C909.429 124.799 898.139 119.078 890.937 115.074L882.672 102.335C883.132 101.852 883.519 101.299 883.817 100.693C894.198 106.289 917.941 119.35 943.805 134.37C942.938 134.591 941.899 134.684 940.701 134.656C939.011 134.616 937.043 134.335 934.865 133.855C930.509 132.895 925.366 131.152 920.035 129.027ZM882.393 97.7674C882.393 100.253 880.393 102.262 877.933 102.262C875.473 102.262 873.474 100.253 873.474 97.7674C873.474 95.2818 875.473 93.2729 877.933 93.2729C880.393 93.2729 882.393 95.2818 882.393 97.7674Z" stroke="#C1C1C1"/>
<path d="M1202.02 151.156C1200.79 151.461 1201.1 152.379 1202.02 153.297C1202.32 154.316 1202.69 155.989 1202.94 156.968C1203.24 158.191 1204.47 157.579 1205.69 157.274C1206.91 156.968 1205.38 153.909 1205.08 152.379C1204.77 150.85 1203.24 150.85 1202.02 151.156Z" stroke="#C1C1C1"/>
<path d="M1182.14 163.697C1181.4 163.942 1177.95 165.431 1176.32 166.145C1176.32 166.654 1176.51 167.613 1177.24 167.368L1177.24 167.368C1178.16 167.062 1180.91 166.145 1181.52 165.839C1182.14 165.533 1182.44 164.921 1182.14 163.697Z" stroke="#C1C1C1"/>
<path d="M1056.11 182.357C1050.97 171.1 1077.82 160.944 1091.9 157.273C1084.25 160.638 1087.92 161.862 1107.8 164.615C1127.69 167.368 1132.27 167.368 1142.67 165.838C1142.98 168.591 1142.67 173.792 1139.92 174.709C1137.17 175.627 1132.27 178.074 1127.69 182.357L1088.84 189.087C1081.39 188.373 1064.43 186.028 1056.11 182.357Z" stroke="#C1C1C1"/>
<path d="M1151.55 205.911C1152.46 205.401 1154.67 204.198 1156.13 203.464C1157.6 202.729 1183.26 190.718 1195.9 184.804C1195.9 181.949 1196.57 175.015 1199.27 170.121C1203.55 162.334 1208.44 161.556 1207.83 173.486M1207.83 177.768C1209.16 176.137 1212.42 172.201 1212.42 170.733C1212.42 170.529 1212.42 169.387 1212.42 166.45C1212.42 162.779 1212.42 161.862 1211.81 160.332C1211.32 159.109 1210.58 157.171 1210.28 156.355C1210.48 155.03 1210.77 152.134 1210.28 151.155C1209.67 149.932 1207.22 147.79 1203.24 145.343C1199.27 142.896 1194.68 139.531 1185.5 137.39C1176.32 135.249 1163.17 137.696 1160.11 143.202C1157.05 148.708 1153.69 155.744 1150.93 160.638C1148.73 164.554 1144.51 165.736 1142.67 165.838" stroke="#C1C1C1"/>
<path d="M1127.69 182.357C1122.18 185.722 1124.01 192.146 1104.74 196.122C1085.47 200.099 1081.8 202.852 1067.12 198.569C1052.43 194.287 1057.63 195.816 1055.8 194.899C1053.96 193.981 1048.76 185.722 1056.41 175.627" stroke="#C1C1C1"/>
<path d="M1055.8 181.745C1054.98 182.357 1053.84 183.948 1055.8 185.416C1058.25 187.251 1058.86 188.169 1067.42 190.004C1075.99 191.84 1083.33 193.063 1091.28 191.534C1097.65 190.31 1116.57 186.334 1125.24 184.498" stroke="#C1C1C1"/>
<path d="M1054.88 184.498L1056.72 189.392C1056.92 189.902 1058.8 191.289 1064.67 192.757C1064.67 190.616 1064.36 189.698 1066.81 190.31C1069.26 190.922 1070.18 190.31 1070.18 193.981C1072.32 194.593 1079.66 196.122 1083.33 195.816C1087 195.51 1093.43 191.228 1099.54 190.004" stroke="#C1C1C1"/>
<path d="M1056.72 189.392C1056.92 190.208 1057.63 191.962 1058.86 192.451C1060.08 192.941 1063.24 193.879 1064.67 194.287C1064.67 194.695 1064.92 195.571 1065.89 195.816C1067.12 196.122 1069.87 197.346 1069.87 196.428C1071.09 196.734 1078.44 198.263 1082.11 197.957C1083.57 196.979 1084.76 195.918 1085.17 195.51" stroke="#C1C1C1"/>
<path d="M1054.27 178.686C1052.03 180.929 1047.6 185.722 1047.85 186.945C1048.15 188.475 1051.82 197.652 1054.27 198.875C1056.72 200.099 1072.93 204.993 1075.68 204.688C1078.44 204.382 1081.19 201.017 1104.13 196.428" stroke="#C1C1C1"/>
<path d="M1051.21 194.899C1051.62 197.244 1052.56 201.996 1053.05 202.24C1053.66 202.546 1061 206.523 1073.85 208.97C1076.54 209.459 1082.11 209.582 1084.55 209.582C1085.68 207.543 1088.22 203.342 1089.45 202.852" stroke="#C1C1C1"/>
<path d="M1077.52 204.381C1083.64 203.158 1102.91 201.322 1105.97 201.016C1109.03 200.711 1112.39 200.711 1114.53 204.993C1116.24 208.419 1117.9 212.743 1118.51 214.476C1117.18 216.006 1114.23 219.126 1113 219.37C1111.47 219.676 1095.57 220.594 1090.98 219.982C1086.39 219.37 1085.78 217.535 1082.11 211.723C1083.58 210.989 1084.25 210.091 1084.55 209.582M1048.15 187.863L1047.23 188.781L1049.68 198.875C1048.36 199.487 1046.5 202.179 1049.68 208.052C1051.64 204.626 1052.74 202.75 1053.05 202.24" stroke="#C1C1C1"/>
<path d="M1049.99 198.57L1050.9 199.181L1052.74 202.24" stroke="#C1C1C1"/>
<path d="M1049.99 208.358C1058.45 211.825 1080.7 219.248 1090.98 219.982" stroke="#C1C1C1"/>
<path d="M1090.67 219.982C1098.42 221.104 1116.31 222.001 1125.85 216.617C1123.1 213.864 1127.69 195.51 1135.94 188.78C1142.84 183.164 1151.85 184.804 1151.85 197.652C1151.85 200.099 1150.63 204.075 1151.55 205.911" stroke="#C1C1C1"/>
<path d="M1206.75 179.941C1206.36 182.832 1205.56 185.367 1204.6 187.126C1204.12 188.007 1203.62 188.67 1203.12 189.089C1202.62 189.507 1202.18 189.648 1201.81 189.598C1201.44 189.548 1201.05 189.297 1200.68 188.762C1200.31 188.228 1200 187.455 1199.77 186.479C1199.3 184.53 1199.2 181.874 1199.59 178.983C1199.97 176.092 1200.77 173.558 1201.73 171.799C1202.21 170.917 1202.72 170.255 1203.21 169.836C1203.71 169.417 1204.15 169.276 1204.52 169.327C1204.9 169.377 1205.28 169.628 1205.65 170.162C1206.02 170.697 1206.34 171.47 1206.57 172.446C1207.03 174.395 1207.13 177.05 1206.75 179.941Z" stroke="#C1C1C1"/>
<path d="M1207.51 180.043C1207.05 183.481 1206.1 186.5 1204.95 188.599C1204.38 189.65 1203.77 190.447 1203.17 190.954C1202.57 191.461 1202.02 191.644 1201.55 191.579C1201.07 191.515 1200.59 191.195 1200.14 190.548C1199.7 189.901 1199.32 188.973 1199.04 187.808C1198.49 185.482 1198.37 182.32 1198.83 178.882C1199.29 175.444 1200.24 172.425 1201.38 170.326C1201.95 169.275 1202.56 168.478 1203.16 167.971C1203.76 167.464 1204.31 167.281 1204.79 167.345C1205.27 167.41 1205.75 167.73 1206.19 168.377C1206.64 169.024 1207.02 169.952 1207.29 171.117C1207.85 173.443 1207.97 176.605 1207.51 180.043Z" stroke="#C1C1C1"/>
<path d="M1182.14 136.778C1175.61 135.758 1159.56 133.841 1147.57 134.331C1132.58 134.943 1121.57 136.166 1112.39 141.978C1103.21 147.79 1094.04 156.661 1091.59 157.273" stroke="#C1C1C1"/>
<path d="M1115.45 140.449C1121.57 140.347 1139.06 140.755 1160.11 143.202" stroke="#C1C1C1"/>
<path d="M1127.69 136.166C1126.05 136.676 1123.28 137.696 1125.24 137.696C1127.69 137.696 1133.8 138.002 1139.92 138.308C1146.04 138.613 1155.52 139.837 1157.97 138.919C1160.42 138.002 1163.78 137.084 1165.31 136.778C1166.84 136.472 1172.65 135.86 1142.98 134.637" stroke="#C1C1C1"/>
<path d="M1173.26 160.332C1174.98 159.836 1177.83 158.753 1180.61 157.835M1180.61 157.835C1185.25 156.3 1190.54 154.369 1193.76 152.685C1198.9 149.993 1200.8 147.688 1201.1 146.872C1199.78 145.547 1195.17 142.406 1187.34 140.449C1177.55 138.001 1168.06 140.754 1163.48 143.813C1158.89 146.872 1153.69 160.026 1151.85 165.838C1150.93 169.203 1153.69 172.874 1153.69 183.274C1153.69 188.882 1153.69 196.632 1153.69 202.24C1153.99 202.036 1154.79 201.506 1155.52 201.016C1156.44 200.405 1177.85 190.616 1181.83 188.78L1181.22 187.557L1182.75 181.439C1183.05 176.952 1183.48 167.184 1182.75 164.003C1182.01 160.821 1181.01 158.565 1180.61 157.835ZM1160.11 159.72C1160.82 159.21 1162.37 158.191 1162.86 158.191C1163.35 158.191 1168.98 158.802 1171.73 159.108" stroke="#C1C1C1"/>
<path d="M1197.43 150.544L1200.8 153.603C1201.2 155.846 1201.65 161.25 1200.18 164.921C1198.35 169.509 1195.29 178.992 1194.07 180.827C1192.84 182.663 1192.84 184.192 1181.83 188.781" stroke="#C1C1C1"/>
<path d="M1180.61 157.579V156.967L1175.71 139.837" stroke="#C1C1C1"/>
<path d="M1156.13 154.826L1158.89 161.862L1154.3 163.391M1154.3 163.391L1155.83 164.92L1156.44 166.144L1169.9 165.532C1170.72 165.124 1172.47 164.003 1172.96 162.779C1173.45 161.556 1173.57 160.842 1173.57 160.638L1171.73 159.108C1169.59 159.312 1164.33 159.72 1160.42 159.72C1159.5 159.72 1159.5 161.25 1158.58 163.085C1156.87 163.33 1155.01 163.391 1154.3 163.391Z" stroke="#C1C1C1"/>
<path d="M1158.89 163.085L1157.97 163.391L1157.66 164.615L1161.95 165.838" stroke="#C1C1C1"/>
<path d="M1158.58 163.391C1162.66 163.289 1171.37 162.596 1173.57 160.638" stroke="#C1C1C1"/>
<path d="M1202.02 191.427C1199.88 192.038 1194.68 191.595 1192.23 190.616C1190.7 190.004 1190.09 188.566 1189.78 188.062" stroke="#C1C1C1"/>
<path d="M1144.02 205.272C1143.68 209.356 1142.93 212.999 1142.01 215.584C1141.55 216.88 1141.05 217.882 1140.56 218.54C1140.05 219.221 1139.64 219.407 1139.36 219.384C1139.09 219.361 1138.72 219.11 1138.33 218.354C1137.95 217.624 1137.63 216.553 1137.38 215.198C1136.9 212.496 1136.77 208.779 1137.11 204.696C1137.45 200.612 1138.2 196.969 1139.12 194.384C1139.58 193.088 1140.08 192.085 1140.57 191.428C1141.08 190.746 1141.49 190.561 1141.77 190.584C1142.04 190.607 1142.41 190.857 1142.8 191.614C1143.18 192.344 1143.51 193.415 1143.75 194.77C1144.23 197.472 1144.36 201.188 1144.02 205.272Z" stroke="#C1C1C1"/>
<path d="M1144.02 205.259C1143.6 210.227 1142.7 214.662 1141.57 217.814C1141.01 219.394 1140.4 220.623 1139.79 221.434C1139.17 222.269 1138.64 222.535 1138.25 222.502C1137.86 222.469 1137.38 222.12 1136.9 221.193C1136.44 220.292 1136.04 218.979 1135.75 217.328C1135.16 214.034 1135 209.509 1135.42 204.541C1135.83 199.573 1136.74 195.137 1137.86 191.985C1138.43 190.406 1139.03 189.176 1139.64 188.366C1140.27 187.53 1140.79 187.265 1141.19 187.297C1141.58 187.33 1142.05 187.68 1142.53 188.607C1143 189.507 1143.39 190.821 1143.69 192.472C1144.27 195.766 1144.43 200.291 1144.02 205.259Z" stroke="#C1C1C1"/>
<path d="M1138.39 222.735C1137.47 223.041 1133.07 223.286 1125.24 221.818C1124.01 221.328 1123.1 219.371 1122.79 218.453" stroke="#C1C1C1"/>
<path d="M1151.85 205.911L1144.51 204.381" stroke="#C1C1C1"/>
<path d="M1055.8 178.38C1058.55 179.604 1071.16 183.091 1099.54 187.251" stroke="#C1C1C1"/>
<path d="M1090.06 161.556C1082.82 163.493 1067 169.081 1061.61 175.933" stroke="#C1C1C1"/>
<path d="M1152.46 163.697C1137.78 169.509 1106.46 181.562 1098.63 183.275M1128.3 168.286C1119.43 171.651 1101.19 178.992 1099.24 181.439" stroke="#C1C1C1"/>
<path d="M1091.59 192.757C1091.59 193.981 1092.08 196.428 1094.04 196.428C1095.99 196.428 1102.81 196.02 1105.97 195.816M1055.8 187.251C1055.09 186.843 1053.6 185.905 1053.35 185.416C1053.11 184.926 1053.05 182.765 1053.05 181.745" stroke="#C1C1C1"/>
<path d="M1200.18 143.508L1205.69 144.12L1210.89 146.873L1209.67 147.79L1204.16 145.037L1202.32 144.731" stroke="#C1C1C1"/>
<path d="M1204.16 145.037L1206 144.12" stroke="#C1C1C1"/>
<path d="M1205.69 147.179C1206.71 148.3 1208.75 150.849 1208.75 152.073C1208.75 153.296 1209.77 155.438 1210.28 156.355" stroke="#C1C1C1"/>
<path d="M1165.01 134.637C1165.51 133.923 1167.09 132.618 1169.29 133.107C1169.29 134.331 1169.7 135.045 1169.9 135.249" stroke="#C1C1C1"/>
<path d="M1177.24 165.532C1176.94 164.003 1177.55 164.003 1178.16 163.697C1178.77 163.391 1180.3 162.779 1180.61 164.309" stroke="#C1C1C1"/>
<path d="M1180.91 166.144C1180.3 167.266 1178.83 169.081 1177.85 167.368" stroke="#C1C1C1"/>
<path d="M1195.9 156.967C1195.9 157.375 1196.08 158.13 1196.82 157.885C1197.74 157.579 1200.18 156.356 1200.18 155.744C1200.18 155.254 1200.18 154.52 1200.18 154.214C1199.37 154.928 1197.31 156.478 1195.59 156.967" stroke="#C1C1C1"/>
<path d="M1196.82 156.356C1196.61 155.846 1196.39 154.765 1197.12 154.52C1198.04 154.214 1198.65 153.909 1198.96 155.132" stroke="#C1C1C1"/>
<path d="M1199.27 156.661C1199.37 157.069 1199.39 158.007 1198.65 158.497C1197.74 159.109 1197.12 158.803 1196.82 157.885" stroke="#C1C1C1"/>
<path d="M1097.71 152.883L1097.1 152.272L1094.34 152.883C1094.14 153.393 1093.73 154.719 1093.73 155.942" stroke="#C1C1C1"/>
<path d="M1097.71 152.884C1096.89 152.068 1094.77 150.803 1092.81 152.272C1090.86 153.74 1092 155.739 1092.81 156.554" stroke="#C1C1C1"/>
<path d="M1092.81 152.272L1094.34 153.189" stroke="#C1C1C1"/>
<path d="M1153.99 204.58C1154.2 202.541 1156.01 197.728 1161.64 194.792C1167.27 191.855 1184.99 180.516 1193.15 175.214" stroke="#C1C1C1"/>
<path d="M706.931 58.5594L708.77 49.6706C709.329 46.9733 711.046 47.0142 711.529 47.2185L714.594 47.8316C715.207 47.8316 716.678 48.6897 716.433 49.6706C716.127 50.8966 714.901 56.7204 714.288 59.479C713.797 61.6859 712.653 61.8289 712.142 61.6246C711.733 61.6246 710.487 61.502 708.77 61.0115C707.054 60.5211 706.829 59.1725 706.931 58.5594Z" stroke="#C1C1C1"/>
<path d="M719.2 54.0005L719.908 50.6316C720.123 49.6093 720.785 49.6248 720.971 49.7022L722.151 49.9346C722.387 49.9346 722.954 50.2598 722.859 50.6316C722.741 51.0963 722.269 53.3035 722.033 54.349C721.844 55.1855 721.403 55.2397 721.207 55.1622C721.049 55.1622 720.569 55.1158 719.908 54.9299C719.247 54.744 719.16 54.2329 719.2 54.0005Z" stroke="#C1C1C1"/>
<path d="M727.169 55.8396L727.877 52.4707C728.092 51.4484 728.754 51.4639 728.94 51.5413L730.12 51.7737C730.357 51.7737 730.923 52.0989 730.829 52.4707C730.711 52.9354 730.238 55.1426 730.002 56.1881C729.814 57.0246 729.373 57.0788 729.176 57.0013C729.019 57.0013 728.539 56.9549 727.877 56.769C727.216 56.5831 727.13 56.072 727.169 55.8396Z" stroke="#C1C1C1"/>
<path d="M735.138 57.6788L735.847 54.3099C736.062 53.2875 736.723 53.3031 736.909 53.3805L738.09 53.6129C738.326 53.6129 738.893 53.9381 738.798 54.3099C738.68 54.7745 738.208 56.9818 737.972 58.0273C737.783 58.8637 737.342 58.918 737.145 58.8405C736.988 58.8405 736.508 58.794 735.847 58.6082C735.186 58.4223 735.099 57.9111 735.138 57.6788Z" stroke="#C1C1C1"/>
<path d="M668.004 50.5901C668.249 47.8928 682.002 47.8315 688.847 48.138C690.584 47.1163 694.977 44.7663 698.655 43.5403C703.253 42.0077 722.563 46.9119 742.487 51.8161C758.425 55.7395 784.275 62.2375 795.207 64.9962C795.105 66.3244 794.287 69.1034 791.835 69.5938C788.77 70.2069 751.069 75.1111 747.084 74.498C743.897 74.0076 722.666 67.9591 712.449 64.9962C710.303 64.5875 703.805 63.2184 694.977 61.0115C683.943 58.2529 667.698 53.9618 668.004 50.5901Z" stroke="#C1C1C1"/>
<path d="M712.448 64.6898C720.111 60.3986 720.418 60.7051 726.548 61.6246C731.452 62.3603 738.4 63.9746 741.261 64.6898M735.743 67.7548V66.5288H739.422L746.778 58.2529L750.456 59.1725L749.843 64.0767L745.245 69.5939L735.743 67.7548Z" stroke="#C1C1C1"/>
<path d="M747.391 58.2531C747.493 57.2314 747.943 55.2493 748.924 55.4945C750.15 55.801 767.314 60.0922 768.54 60.7052C769.767 61.3182 769.46 61.9312 768.54 65.9159M749.843 64.3833C751.784 64.8942 756.096 66.0385 757.813 66.5289C759.529 67.0193 763.228 65.9159 764.862 65.3029C764.862 65.3029 771.912 66.2224 771.912 67.1419C771.912 68.0615 758.732 73.8852 758.732 73.8852L747.391 71.4331M735.744 66.5289C730.533 65.3029 727.468 65.9159 728.081 66.5289C728.694 67.1419 729.92 68.981 737.276 70.8201C744.632 72.6592 749.537 72.6592 746.165 68.981M748.924 53.3488C748.924 53.3488 771.176 53.1037 774.364 54.5749" stroke="#C1C1C1"/>
<path d="M756.586 55.1878C760.775 56.1074 770.441 57.2108 775.59 54.2683C782.027 50.5901 800.418 41.7013 804.709 42.0078C808.142 42.253 815.13 43.9491 818.195 44.7665L812.622 49.6707M795.207 64.9963L810.839 51.24M785.705 62.2377L803.789 49.6707M810.839 51.24L797.353 48.1381L797.966 46.299L812.622 49.6707M810.839 51.24L812.622 49.6707" stroke="#C1C1C1"/>
<path d="M696.51 44.4601L699.882 45.0731L694.977 48.4447L690.686 47.5252" stroke="#C1C1C1"/>
<path d="M696.816 49.0577L702.027 45.686L707.544 46.9121L700.801 49.9772L696.816 49.0577Z" stroke="#C1C1C1"/>
<path d="M1306.91 68.3607C1307.12 68.0807 1307.67 67.5255 1308.1 67.5444C1308.63 67.568 1309.68 68.1523 1310.18 71.2857M1303.29 71.6703C1303.34 71.9709 1303.31 72.6228 1302.76 72.8247C1302.08 73.0771 1300.1 73.0272 1301.56 75.196M1302.66 67.2046L1303.52 67.1569M1303.52 67.1569C1303.54 66.8878 1303.72 66.3847 1304.29 66.5246C1304.85 66.6645 1304.76 67.0339 1304.65 67.2011C1304.99 67.3246 1305.54 67.7083 1304.97 68.2544C1304.87 68.2604 1305.22 67.8656 1304.46 67.7471C1303.86 67.6523 1303.58 67.3141 1303.52 67.1569Z" stroke="#C1C1C1"/>
<path d="M1304.74 67.8924L1303.44 68.5545M1303.44 68.5545L1301.89 66.7121M1303.44 68.5545L1302.78 70.1451C1302.37 70.2214 1301.42 70.3924 1300.86 70.4661C1300.17 70.5583 1299.37 70.5496 1299.44 69.9561M1312.73 74.8398C1314.38 73.9086 1318.51 72.0312 1321.9 71.9709C1326.13 71.8956 1329.14 73.0135 1328.64 73.6843C1328.14 74.355 1326.62 72.9934 1322 73.7869C1317.38 74.5804 1314.69 76.3378 1313.62 77.2016M1312.39 79.1456C1311.9 79.7263 1310.93 81.7127 1310.95 85.0124C1311.03 85.6504 1309.96 84.6388 1309.87 82.072" stroke="#C1C1C1"/>
<path d="M1287.76 58.3924L1288.26 57.6682M1291.07 60.9939C1291.48 60.4171 1292.7 59.2848 1294.24 59.3699M1296.12 51.7641L1296.16 52.4584C1294.86 52.8168 1292.19 53.6339 1291.91 54.0352C1291.63 54.4365 1292.31 55.6741 1292.68 56.2427L1295.57 57.2598L1297.27 54.9685L1298.66 57.7842C1298.17 58.4005 1297.08 59.7045 1296.58 59.9895C1294.27 59.304 1289.52 57.9013 1287.43 57.2856C1285.43 55.2114 1286.55 52.3878 1287.36 51.2352C1287.27 51.1334 1286.98 50.7528 1286.6 50.0455C1288.01 48.5092 1290.96 48.4806 1292.25 48.6583L1299.25 50.2499L1298.72 51.1907L1290.87 52.7536" stroke="#C1C1C1"/>
<path d="M1296.11 52.4614L1296.42 53.2477L1295.92 53.865L1297.06 55.1407C1295.32 57.0379 1293.83 56.4996 1293.31 55.9933L1293.23 55.7295M1295.87 52.957L1292.77 54.0409L1292.9 54.5158M1292.9 54.5158C1291.63 54.4083 1288.65 53.8206 1286.94 52.3303M1292.9 54.5158L1293.23 55.7295M1293.23 55.7295C1291.69 55.6368 1288.18 55.0576 1286.47 53.4818" stroke="#C1C1C1"/>
<path d="M1302.88 69.1213C1303.31 69.5614 1304.22 70.4717 1304.35 70.5928C1304.52 70.7441 1305.15 70.3878 1304.64 69.9339C1304.35 69.6746 1303.98 69.3303 1303.72 69.0747M1303.45 68.8215C1303.52 68.8842 1303.61 68.9724 1303.72 69.0747M1303.72 69.0747L1304.69 68.8597L1304.56 68.5986L1306.8 68.2598L1306.97 68.4645L1306.44 68.6545L1306.3 69.0374" stroke="#C1C1C1"/>
<path d="M1305.51 72.9931L1304.49 71.9785M1304.49 71.9785L1306.26 70.1116M1304.49 71.9785L1304.02 72.3258L1302.43 70.7535L1303.17 69.4803M1306.26 70.1116L1307.56 71.4317L1307.39 71.6022M1306.26 70.1116L1305.02 69.1089L1307.42 68.9748C1308.85 70.1277 1311.92 72.678 1312.83 73.6558C1312.51 74.831 1312.81 76.1395 1313 76.6469M1305.99 72.9662L1307.39 71.6022M1307.39 71.6022L1311.42 75.2348" stroke="#C1C1C1"/>
<path d="M1274.89 89.8112L1272.76 91.1085C1272.9 91.6723 1273.24 92.9143 1273.48 93.3724C1274.79 93.7709 1275.22 93.8289 1275.27 93.8082L1275.5 90.1523" stroke="#C1C1C1"/>
<path d="M1275.27 93.8082C1278.17 94.2357 1284.14 95.1026 1284.83 95.1499C1285.69 95.209 1285.33 94.5325 1288.91 94.3327" stroke="#C1C1C1"/>
<path d="M1294.23 94.625L1292.67 93.47M1290.65 91.985L1292.67 93.47M1292.67 93.47L1291.33 88.6792M1294.61 96.5863L1293.83 97.0584L1294.24 97.8394M1295.45 100.183L1296.75 99.4137M1295.45 100.183L1294.24 97.8394M1295.45 100.183L1280.79 109.145L1279.62 107.442L1294.24 97.8394" stroke="#C1C1C1"/>
<path d="M1299.56 88.3804L1306.34 87.0282M1308.14 86.669L1306.34 87.0282M1302.06 84.2225C1301.99 84.4945 1302.06 85.0261 1302.96 84.976C1304.08 84.9134 1304.42 85.2694 1304.81 85.4621C1305.12 85.6164 1305.29 84.7924 1305.34 84.3611C1304.46 84.392 1302.69 84.2087 1302.59 83.2283M1300.25 87.2705L1301.44 87.4719L1301.86 86.3234C1302.86 86.0888 1304.98 85.7202 1305.44 86.1237C1305.89 86.5271 1306.23 86.8948 1306.34 87.0282" stroke="#C1C1C1"/>
<path d="M1303.56 77.4949L1304.92 75.9723C1305.04 75.5371 1305.32 74.5788 1305.47 74.2274C1305.62 73.876 1305.35 73.448 1305.2 73.2779L1305.66 72.8238L1310.05 76.7039" stroke="#C1C1C1"/>
<path d="M1303.54 75.1389L1302.78 74.1094L1300.38 76.1724L1301.18 77.0387L1303.54 75.1389ZM1303.54 75.1389C1304.26 75.0984 1304.76 75.6421 1304.92 75.919" stroke="#C1C1C1"/>
<path d="M1297.22 91.6183C1298.14 90.7991 1300.26 89.1237 1301.16 89.2018C1302.29 89.2995 1310.62 90.7097 1308.99 89.2472M1309.02 88.9238C1309.49 89.076 1310.39 89.619 1310.18 90.5733C1309.78 92.4581 1302.45 90.9224 1301.25 90.7508C1300.81 90.6892 1299.41 91.6751 1298.75 92.1758" stroke="#C1C1C1"/>
<path d="M1309.18 87.0395L1308.99 89.3007M1309.1 91.3303C1308.89 93.0386 1308.48 97.0551 1308.39 97.7459C1308.28 98.6095 1306.9 98.8472 1305.95 99.1679C1305.19 99.4245 1302.23 100.429 1300.85 100.899C1300.68 101.123 1300.22 101.513 1299.69 101.285C1299.03 101.001 1294.53 99.0018 1293.96 94.5865C1291.6 95.5219 1289.58 94.8844 1288.3 93.9382" stroke="#C1C1C1"/>
<path d="M1308.2 86.6126L1307.84 89.9005M1307.67 91.5711C1307.59 93.0756 1307.44 96.2021 1307.47 96.6721C1307.5 97.2596 1306.74 97.8919 1300.41 99.7452" stroke="#C1C1C1"/>
<path d="M1298.66 96.1996C1298.85 97.0107 1299.26 98.7057 1299.4 98.9976M1299.4 98.9976C1299.58 99.3626 1301.03 100.246 1300.36 100.766C1299.69 101.285 1298.77 100.655 1298.48 100.153M1299.4 98.9976C1299.56 100.232 1298.26 100.258 1297.59 100.117" stroke="#C1C1C1"/>
<path d="M1291.48 88.5101C1290.97 89.0206 1290.59 91.721 1290.62 92.362C1290.66 93.0029 1290.62 93.3264 1289.59 93.9735C1288.55 94.6207 1276.53 90.4161 1275.5 90.1523C1274.67 89.9413 1274.53 89.2416 1274.57 88.9181C1274.23 88.8658 1273.08 88.8301 1271.2 89.106C1268.87 89.4508 1267.19 91.0981 1267.27 90.6115C1267.88 88.5199 1274.48 86.9231 1277.7 86.3862L1277.75 87.3476L1290.57 86.632" stroke="#C1C1C1"/>
<path d="M1277.7 86.4395C1278.87 85.642 1283.12 83.7687 1289.72 82.9289" stroke="#C1C1C1"/>
<path d="M1294.86 81.0344C1296.2 80.0133 1299.22 77.6837 1300.61 76.5344C1300.67 77.5492 1300.64 77.9795 1299.67 78.8373C1298.7 79.6951 1295.39 82.8265 1295.06 83.6486" stroke="#C1C1C1"/>
<path d="M1297.09 88.197L1299.26 88.7721L1303.33 82.0619C1304.42 83.3761 1306.89 86.1173 1308.03 86.568C1309.17 87.0188 1310.3 87.4774 1310.72 87.6504L1309.27 82.9089L1311.94 78.9023" stroke="#C1C1C1"/>
<path d="M1317.68 83.8325L1310.94 77.8898M1310.94 77.8898L1309.85 76.9344L1311.56 75.0659L1312.6 76.0507L1310.94 77.8898Z" stroke="#C1C1C1"/>
<path d="M1312.44 76.2493L1319.2 82.1407" stroke="#C1C1C1"/>
<path d="M1290.67 85.5014C1289.95 85.0594 1289.52 84.1723 1290.05 83.1247C1289.31 82.8234 1289.31 82.3445 1289.41 82.1426L1288.55 81.1725C1286.94 80.7803 1282.81 80.0037 1279.16 80.0356C1274.61 80.0753 1273.77 75.6216 1274.67 73.4819C1277.38 73.9737 1279.63 72.1334 1282.97 72.4826C1285.53 73.7544 1291.26 76.8959 1293.8 78.3076C1294.25 78.6577 1295.13 80.2693 1295.08 83.9156M1290.67 85.5014C1290.51 86.5281 1291.16 87.6704 1291.77 88.9224C1292.37 90.1745 1293.79 93.4174 1294.11 94.364C1294.43 95.3105 1294.65 96.4232 1295.57 97.6039C1296.79 97.022 1301.3 94.8556 1303.4 93.8452C1303.2 93.1064 1302.26 91.798 1300.11 92.4751C1298.46 92.0957 1297.55 91.9575 1297.29 91.9358L1296.73 90.4137C1296.95 90.1871 1297.33 89.5121 1297.11 88.6243C1296.83 87.5146 1296.47 84.8025 1295.83 84.8383C1295.62 84.2496 1295.24 83.9779 1295.08 83.9156M1290.67 85.5014C1293.03 85.6693 1294.59 84.5142 1295.08 83.9156" stroke="#C1C1C1"/>
<path d="M1274.78 73.5294C1274.28 73.2179 1273.55 72.2371 1274.63 70.8054C1275.98 69.0157 1277.57 65.8194 1279.58 63.4569C1281.19 61.5669 1284.01 59.066 1285.22 58.0518L1287.54 58.3509C1288.85 59.0459 1291.41 60.7285 1291.17 61.8989C1290.88 63.3619 1292.57 64.9282 1292.41 65.8482C1293.03 66.4029 1295.46 66.696 1296.25 66.5445C1296.31 67.5593 1296.35 68.8788 1296.41 69.3219C1295.45 69.786 1292.28 70.4417 1287.25 69.351C1286.69 69.0604 1284.83 64.503 1286.79 61.179" stroke="#C1C1C1"/>
<path d="M1296.2 66.6009C1296.66 66.4682 1297.64 66.2848 1297.92 66.6123C1298.26 67.0217 1301.44 66.3621 1301.89 66.7122M1301.57 67.6944L1302.42 68.6645L1301.71 70.3116M1301.03 67.7242L1301.63 68.8695L1300.97 70.3533" stroke="#C1C1C1"/>
<path d="M1297.91 66.5589L1298.07 69.3897" stroke="#C1C1C1"/>
<path d="M1286.67 68.5797C1286.67 68.9901 1286.39 69.9453 1285.22 70.4821C1284.05 71.0189 1283.23 72.0039 1282.97 72.4293" stroke="#C1C1C1"/>
<path d="M1300.43 78.0448C1300.84 77.7538 1303.42 77.2351 1310.42 77.4872" stroke="#C1C1C1"/>
<path d="M1326.94 87.8291C1327.14 87.7867 1327.34 87.7591 1327.55 87.7476C1329.66 87.6296 1331.47 89.2474 1331.59 91.3611C1331.71 93.4747 1330.09 95.2838 1327.97 95.4018C1325.86 95.5198 1324.05 93.902 1323.93 91.7883C1323.91 91.3631 1323.96 90.9508 1324.06 90.5622L1324.97 91.3715C1324.96 91.4897 1324.96 91.6097 1324.96 91.7308C1325.05 93.2749 1326.37 94.4568 1327.92 94.3706C1329.46 94.2844 1330.64 92.9628 1330.56 91.4186C1330.48 90.01 1329.37 88.9031 1328 88.7848L1326.94 87.8291Z" stroke="#C1C1C1"/>
<path d="M1327.63 93.0821L1317.48 84.0581L1319.44 81.7519L1328.3 89.7229L1327.63 93.0821Z" stroke="#C1C1C1"/>
<path d="M1328.27 100.673C1333.29 100.393 1337.14 96.0917 1336.86 91.0667C1336.58 86.0418 1332.28 82.1956 1327.25 82.4761C1325.56 82.5705 1324 83.1209 1322.69 84.0013L1321.01 82.4859C1322.73 81.2053 1324.83 80.3984 1327.13 80.2699C1333.37 79.9214 1338.72 84.7001 1339.06 90.9436C1339.41 97.187 1334.63 102.531 1328.39 102.879C1322.15 103.228 1316.8 98.4491 1316.46 92.2057C1316.32 89.6995 1317 87.3394 1318.28 85.3883L1319.95 86.8825C1319.04 88.395 1318.56 90.1879 1318.66 92.0825C1318.94 97.1075 1323.24 100.954 1328.27 100.673Z" stroke="#C1C1C1"/>
<mask id="path-98-inside-1_571_4362" fill="white">
<path d="M1303.42 93.7895C1303.71 94.3902 1303.75 95.0813 1303.53 95.7108C1303.31 96.3403 1302.85 96.8566 1302.25 97.1462C1301.65 97.4358 1300.96 97.4749 1300.33 97.2549C1299.7 97.035 1299.18 96.5739 1298.89 95.9733L1301.16 94.8814L1303.42 93.7895Z"/>
</mask>
<path d="M1303.42 93.7895C1303.71 94.3902 1303.75 95.0813 1303.53 95.7108C1303.31 96.3403 1302.85 96.8566 1302.25 97.1462C1301.65 97.4358 1300.96 97.4749 1300.33 97.2549C1299.7 97.035 1299.18 96.5739 1298.89 95.9733L1301.16 94.8814L1303.42 93.7895Z" stroke="#C1C1C1" stroke-width="2" mask="url(#path-98-inside-1_571_4362)"/>
<circle cx="1298.07" cy="97.1967" r="0.5" transform="rotate(-3.19499 1298.07 97.1967)" stroke="#C1C1C1" stroke-width="0.390865"/>
<circle cx="1305.95" cy="93.4884" r="0.676886" transform="rotate(-3.19499 1305.95 93.4884)" stroke="#C1C1C1"/>
<circle cx="1305.23" cy="95.8863" r="0.5" transform="rotate(-3.19499 1305.23 95.8863)" stroke="#C1C1C1" stroke-width="0.0698963"/>
<mask id="path-102-inside-2_571_4362" fill="white">
<path fill-rule="evenodd" clip-rule="evenodd" d="M1289.13 106.858C1289.37 111.224 1286.03 114.96 1281.66 115.204C1277.3 115.448 1273.56 112.106 1273.32 107.74C1273.07 103.375 1276.41 99.638 1280.78 99.3943C1283.43 99.2464 1285.85 100.419 1287.39 102.34L1290.71 100.161C1288.41 97.1021 1284.67 95.2123 1280.56 95.4418C1274.01 95.8074 1269 101.412 1269.36 107.961C1269.73 114.51 1275.33 119.522 1281.88 119.157C1288.43 118.791 1293.44 113.186 1293.08 106.637C1292.99 105.096 1292.62 103.64 1292.01 102.32L1288.59 104.398C1288.89 105.164 1289.08 105.991 1289.13 106.858Z"/>
</mask>
<path d="M1287.39 102.34L1286.61 102.967L1287.18 103.674L1287.94 103.176L1287.39 102.34ZM1290.71 100.161L1291.26 100.997L1292.15 100.411L1291.51 99.559L1290.71 100.161ZM1292.01 102.32L1292.91 101.9L1292.44 100.883L1291.49 101.465L1292.01 102.32ZM1288.59 104.398L1288.07 103.544L1287.35 103.981L1287.66 104.764L1288.59 104.398ZM1281.72 116.203C1286.64 115.928 1290.4 111.719 1290.12 106.802L1288.13 106.914C1288.34 110.728 1285.42 113.993 1281.61 114.206L1281.72 116.203ZM1272.32 107.796C1272.59 112.713 1276.8 116.477 1281.72 116.203L1281.61 114.206C1277.79 114.419 1274.53 111.499 1274.31 107.685L1272.32 107.796ZM1280.72 98.3958C1275.81 98.6703 1272.04 102.879 1272.32 107.796L1274.31 107.685C1274.1 103.87 1277.02 100.606 1280.84 100.393L1280.72 98.3958ZM1288.17 101.713C1286.43 99.5519 1283.71 98.2292 1280.72 98.3958L1280.84 100.393C1283.15 100.264 1285.26 101.287 1286.61 102.967L1288.17 101.713ZM1290.17 99.3248L1286.85 101.504L1287.94 103.176L1291.26 100.997L1290.17 99.3248ZM1291.51 99.559C1289.02 96.2452 1284.96 94.1945 1280.5 94.4434L1280.62 96.4403C1284.38 96.2302 1287.8 97.959 1289.92 100.763L1291.51 99.559ZM1280.5 94.4434C1273.4 94.8397 1267.97 100.917 1268.37 108.017L1270.36 107.905C1270.03 101.908 1274.62 96.775 1280.62 96.4403L1280.5 94.4434ZM1268.37 108.017C1268.76 115.117 1274.84 120.551 1281.94 120.155L1281.83 118.158C1275.83 118.493 1270.7 113.903 1270.36 107.905L1268.37 108.017ZM1281.94 120.155C1289.04 119.759 1294.47 113.682 1294.08 106.582L1292.08 106.693C1292.42 112.69 1287.82 117.823 1281.83 118.158L1281.94 120.155ZM1294.08 106.582C1293.98 104.913 1293.58 103.333 1292.91 101.9L1291.1 102.739C1291.66 103.947 1292 105.28 1292.08 106.693L1294.08 106.582ZM1289.11 105.252L1292.53 103.174L1291.49 101.465L1288.07 103.544L1289.11 105.252ZM1290.12 106.802C1290.07 105.827 1289.86 104.896 1289.52 104.032L1287.66 104.764C1287.92 105.432 1288.09 106.154 1288.13 106.914L1290.12 106.802Z" fill="#C1C1C1" mask="url(#path-102-inside-2_571_4362)"/>
<mask id="path-104-inside-3_571_4362" fill="white">
<path fill-rule="evenodd" clip-rule="evenodd" d="M1284.33 104.354C1283.49 103.474 1282.29 102.953 1280.98 103.026C1278.62 103.158 1276.82 105.178 1276.95 107.538C1277.08 109.898 1279.1 111.704 1281.46 111.572C1283.82 111.44 1285.63 109.42 1285.49 107.061C1285.48 106.815 1285.45 106.575 1285.39 106.343L1283.57 107.452C1283.5 108.624 1282.55 109.582 1281.35 109.649C1280.05 109.722 1278.94 108.728 1278.87 107.43C1278.8 106.132 1279.79 105.021 1281.09 104.949C1281.68 104.916 1282.23 105.105 1282.67 105.442L1284.33 104.354Z"/>
</mask>
<path d="M1284.33 104.354L1284.88 105.19L1285.88 104.533L1285.05 103.665L1284.33 104.354ZM1285.39 106.343L1286.37 106.121L1286.06 104.767L1284.87 105.489L1285.39 106.343ZM1283.57 107.452L1283.05 106.598L1282.61 106.869L1282.57 107.389L1283.57 107.452ZM1282.67 105.442L1282.05 106.231L1282.62 106.672L1283.22 106.278L1282.67 105.442ZM1285.05 103.665C1284.02 102.582 1282.54 101.938 1280.93 102.028L1281.04 104.025C1282.04 103.969 1282.96 104.366 1283.6 105.042L1285.05 103.665ZM1280.93 102.028C1278.02 102.19 1275.79 104.682 1275.95 107.593L1277.95 107.482C1277.85 105.673 1279.23 104.126 1281.04 104.025L1280.93 102.028ZM1275.95 107.593C1276.11 110.505 1278.6 112.733 1281.52 112.571L1281.4 110.574C1279.6 110.675 1278.05 109.29 1277.95 107.482L1275.95 107.593ZM1281.52 112.571C1284.43 112.408 1286.66 109.916 1286.49 107.005L1284.5 107.116C1284.6 108.925 1283.21 110.473 1281.4 110.574L1281.52 112.571ZM1286.49 107.005C1286.48 106.703 1286.43 106.408 1286.37 106.121L1284.42 106.565C1284.46 106.743 1284.49 106.927 1284.5 107.116L1286.49 107.005ZM1284.09 108.307L1285.91 107.197L1284.87 105.489L1283.05 106.598L1284.09 108.307ZM1281.41 110.648C1283.12 110.552 1284.46 109.187 1284.57 107.516L1282.57 107.389C1282.53 108.062 1281.99 108.612 1281.3 108.651L1281.41 110.648ZM1277.87 107.486C1277.98 109.335 1279.56 110.751 1281.41 110.648L1281.3 108.651C1280.55 108.692 1279.91 108.121 1279.87 107.375L1277.87 107.486ZM1281.03 103.951C1279.19 104.054 1277.77 105.637 1277.87 107.486L1279.87 107.375C1279.83 106.628 1280.4 105.989 1281.15 105.947L1281.03 103.951ZM1283.28 104.654C1282.67 104.173 1281.88 103.904 1281.03 103.951L1281.15 105.947C1281.49 105.928 1281.8 106.036 1282.05 106.231L1283.28 104.654ZM1283.78 103.518L1282.12 104.606L1283.22 106.278L1284.88 105.19L1283.78 103.518Z" fill="#C1C1C1" mask="url(#path-104-inside-3_571_4362)"/>
<circle cx="1299.63" cy="69.4634" r="0.5" transform="rotate(-3.19499 1299.63 69.4634)" stroke="#C1C1C1" stroke-width="0.176886"/>
<path d="M1299.19 69.2736L1298.23 69.3272C1297.94 69.5222 1297.15 69.7946 1296.35 69.3248" stroke="#C1C1C1"/>
<defs>
<linearGradient id="paint0_linear_571_4362" x1="0" y1="0" x2="1440" y2="0" gradientUnits="userSpaceOnUse">
<stop stop-color="white"/>
<stop offset="1" stop-color="#F8F8F8"/>
</linearGradient>
<linearGradient id="paint1_linear_571_4362" x1="0" y1="0" x2="1440" y2="0" gradientUnits="userSpaceOnUse">
<stop stop-color="white"/>
<stop offset="1" stop-color="#F8F8F8"/>
</linearGradient>
<linearGradient id="paint2_linear_571_4362" x1="0" y1="0" x2="1440" y2="0" gradientUnits="userSpaceOnUse">
<stop stop-color="white"/>
<stop offset="1" stop-color="#F8F8F8"/>
</linearGradient>
<linearGradient id="paint3_linear_571_4362" x1="0" y1="0" x2="1440" y2="0" gradientUnits="userSpaceOnUse">
<stop stop-color="white"/>
<stop offset="1" stop-color="#DFDFDF"/>
</linearGradient>
</defs>
<template xmlns="" id="transover-popup-template">
  <style>
    .pos_translation {
      padding-bottom: 3px;
    }

    strong {
      font-weight: bold;
    }

    .rtl {
      direction: rtl;
    }

    main {
      color: #333;
      max-width: 800px;
      font-family: Arial, sans-serif;
      font-size: 14px;
      font-weight: 300;
      letter-spacing: initial;

      background: #fcf7d9;
      text-align: left;
      border-style: solid;
      border-width: 1px;
      border-color: #ccc;
      box-shadow: rgba(0,0,0,0.2) 0px 2px 5px;
      border-radius: 5px;
      padding: 6px 8px 3px 8px;
      position: fixed;
      z-index: 2147483647;
      top: -1500px;
      left: 0;
      box-sizing: content-box;
      -webkit-font-smoothing: antialiased;
      font-smoothing: antialiased;
      text-rendering: optimizeLegibility;

      /* To fix the following issue:
      1. Have translate on hover enabled (opposed to translate on click).
      2. Wisit a website that has a dropdown menu that opens on hover.
      3. Open the menu.
      4. Hover over a word within that menu.
      5. Incidentally move the cursor over the TransOver popup.
      The hover menu gets closed.
      */
      pointer-events: none;
    }

    .pos_translation {
      font-size: 1em;
      line-height: 1.3em;
    }

    .red {
      color: red;
    }

    .from_lang {
      color: grey;
      font-size: 0.8em;
      line-height: 1.2em;
      margin-top: 2px;
      margin-bottom: 3px;
    }
  </style>

  <main translate="no"/>
</template></svg>