<?xml version="1.0" encoding="UTF-8"?>
<svg id="Layer_1" xmlns="http://www.w3.org/2000/svg" xmlns:xlink="http://www.w3.org/1999/xlink" version="1.1" viewBox="0 0 1440 300">
  <!-- Generator: Adobe Illustrator 29.5.1, SVG Export Plug-In . SVG Version: 2.1.0 Build 141)  -->
  <defs>
    <style>
      .st0 {
        mask: url(#mask);
      }

      .st1 {
        fill-rule: evenodd;
      }

      .st1, .st2 {
        fill: #fff;
      }

      .st3 {
        fill: #c1c1c1;
      }

      .st4 {
        mask: url(#mask-2);
      }

      .st5 {
        mask: url(#mask-1);
      }

      .st6 {
        stroke-width: 2px;
      }

      .st6, .st7, .st8, .st9, .st10, .st11 {
        fill: none;
        stroke: #c1c1c1;
      }

      .st7 {
        stroke-width: .4px;
      }

      .st7, .st8, .st9, .st11 {
        stroke-miterlimit: 4;
      }

      .st8 {
        stroke-width: 1px;
      }

      .st9 {
        stroke-width: .2px;
      }

      .st12 {
        fill: url(#linear-gradient);
      }

      .st12, .st13, .st14, .st15 {
        isolation: isolate;
        opacity: .4;
      }

      .st13 {
        fill: url(#linear-gradient3);
      }

      .st14 {
        fill: url(#linear-gradient1);
      }

      .st15 {
        fill: url(#linear-gradient2);
      }

      .st11 {
        stroke-width: 0px;
      }
    </style>
    <linearGradient id="linear-gradient" x1="0" y1="152.4" x2="1440" y2="152.4" gradientTransform="translate(0 302) scale(1 -1)" gradientUnits="userSpaceOnUse">
      <stop offset="0" stop-color="#fff"/>
      <stop offset="1" stop-color="#f8f8f8"/>
    </linearGradient>
    <linearGradient id="linear-gradient1" x1="0" y1="152" x2="1440" y2="152" gradientTransform="translate(0 302) scale(1 -1)" gradientUnits="userSpaceOnUse">
      <stop offset="0" stop-color="#fff"/>
      <stop offset="1" stop-color="#f8f8f8"/>
    </linearGradient>
    <linearGradient id="linear-gradient2" x1="0" y1="161.1" x2="1440" y2="161.1" gradientTransform="translate(0 302) scale(1 -1)" gradientUnits="userSpaceOnUse">
      <stop offset="0" stop-color="#fff"/>
      <stop offset="1" stop-color="#f8f8f8"/>
    </linearGradient>
    <linearGradient id="linear-gradient3" x1="0" y1="164.3" x2="1440" y2="164.3" gradientTransform="translate(0 302) scale(1 -1)" gradientUnits="userSpaceOnUse">
      <stop offset="0" stop-color="#fff"/>
      <stop offset="1" stop-color="#dfdfdf"/>
    </linearGradient>
    <mask id="mask" x="1297.6" y="92.5" width="7.1" height="5.9" maskUnits="userSpaceOnUse">
      <g id="path-98-inside-1_571_4362">
        <path class="st2" d="M1303.4,93.8c.3.6.3,1.3.1,1.9s-.7,1.1-1.3,1.4c-.6.3-1.3.3-1.9.1-.6-.2-1.1-.7-1.4-1.3l2.3-1.1,2.3-1.1Z"/>
      </g>
    </mask>
    <mask id="mask-1" x="1268.3" y="94.4" width="25.8" height="25.8" maskUnits="userSpaceOnUse">
      <g id="path-102-inside-2_571_4362">
        <path class="st1" d="M1289.1,106.9c.2,4.4-3.1,8.1-7.5,8.3-4.4.2-8.1-3.1-8.3-7.5-.2-4.4,3.1-8.1,7.5-8.3,2.7-.1,5.1,1,6.6,2.9l3.3-2.2c-2.3-3.1-6-4.9-10.1-4.7-6.6.4-11.6,6-11.2,12.5.4,6.5,6,11.6,12.5,11.2,6.6-.4,11.6-6,11.2-12.5,0-1.5-.5-3-1.1-4.3l-3.4,2.1c.3.8.5,1.6.5,2.5Z"/>
      </g>
    </mask>
    <mask id="mask-2" x="1275.9" y="102" width="10.6" height="10.6" maskUnits="userSpaceOnUse">
      <g id="path-104-inside-3_571_4362">
        <path class="st1" d="M1284.3,104.4c-.8-.9-2-1.4-3.3-1.3-2.4.1-4.2,2.2-4,4.5s2.2,4.2,4.5,4c2.4-.1,4.2-2.2,4-4.5,0-.2,0-.5,0-.7l-1.8,1.1c0,1.2-1,2.1-2.2,2.2-1.3,0-2.4-.9-2.5-2.2s.9-2.4,2.2-2.5c.6,0,1.1.2,1.6.5l1.7-1.1Z"/>
      </g>
    </mask>
  </defs>
  <path class="st12" d="M0,0v299.2c96-24.8,192-39.1,288-43,96-3.9,192-24.4,288-61.6,96-37.2,192-49,288-35.6,96,13.5,192-7.2,288-61.9,96-54.7,192-72,288-51.9V0H0Z"/>
  <path class="st14" d="M0,0v300c96-41.8,192-66.9,288-75.5,96-8.5,192-19,288-31.6,96-12.5,192-25.4,288-38.6,96-13.2,192-28.3,288-45.2,96-16.9,192-36.9,288-60.1V0H0Z"/>
  <path class="st15" d="M0,0v281.8c96-27.8,192-44.8,288-50.9s192-23.1,288-51.1c96-28,192-35.3,288-22,96,13.3,192-8.8,288-66.3,96-57.5,192-72.2,288-44.3V0H0Z"/>
  <path class="st13" d="M0,0v273.2c96-3.7,184,6.7,280,0,96-6.7,162-19.6,258-52.7s220-23.8,316-27,202.5-47,298.5-54,191.5-41.5,287.5-80.9V0H0Z"/>
  <path class="st10" d="M998.8,83.4c.5.2,1,.2,1.5.2s1,0,1.5-.2v84.9l-3,.7v-85.6Z"/>
  <path class="st10" d="M1002.8,74.5c0,0-.1,0-.2-.1.1-.2.2-.4.4-.7.4-.7,1-1.8,1.8-3.1,1.5-2.7,3.8-6.4,6.3-10.7,5-8.4,11.3-19,17.1-28.4,0,.6.1,1.2,0,1.9,0,1.2-.3,2.7-.7,4.2-.8,3.2-2.2,6.9-3.8,10.8-3.3,7.7-7.7,15.8-10.8,21l-9.3,5.7c-.2-.2-.5-.5-.8-.7ZM962.1,73.8c8.3-1,17.6-1.2,23.6-1.2l9.6,5.2c0,.4,0,.8,0,1.3-8.6,0-28.3-.1-50.1-.8.4-.4,1-.7,1.6-1,1.1-.6,2.5-1.1,4-1.5,3.1-.9,7.1-1.6,11.2-2.1ZM1014.7,114.3c-5-6.7-9.9-14.6-12.9-19.9l-.3-11c.4-.1.8-.3,1.2-.5,4.4,7.5,14.1,24.6,24.4,43.6-.5-.2-1.1-.5-1.7-.9-1-.7-2.1-1.6-3.3-2.7-2.3-2.3-4.9-5.3-7.4-8.7ZM1002.9,80.4c-.9,1.5-2.8,1.9-4.3,1-1.5-.9-1.9-2.9-1-4.3.9-1.5,2.8-1.9,4.3-1,1.5.9,2,2.9,1,4.3Z"/>
  <path class="st10" d="M1112.3,81.7v-.2c7.9-.2,25.7-.6,45.3-.5-.4.3-.8.6-1.4.9-1,.5-2.2,1-3.6,1.5-2.8.9-6.4,1.6-10.2,2.1-7.5,1.1-15.9,1.5-21.5,1.6l-8.8-4.5c0-.3,0-.6,0-.9ZM1093.4,49.6c4.7,6,9.3,13.1,12.1,17.9l.5,10c-.3.1-.7.3-.9.5-4.1-6.7-13.3-22.1-23.1-39.4.4.2.9.4,1.4.7.9.6,2,1.4,3.1,2.4,2.2,2,4.6,4.8,6.9,7.8ZM1087,110c2.8-7.1,6.7-14.7,9.3-19.5l8.3-5.4c.3.2.6.5.9.6-3.8,7-12.4,22.7-22.3,39.8,0-.5-.1-1,0-1.6,0-1.1.2-2.4.5-3.9.7-2.9,1.8-6.4,3.2-10ZM1107.8,84.6c-1.6,0-2.8-1.3-2.8-2.9,0-1.6,1.3-2.8,2.8-2.8,1.5,0,2.8,1.3,2.8,2.9,0,1.6-1.3,2.8-2.8,2.8Z"/>
  <path class="st10" d="M1106.3,86.1c.4.1.9.2,1.4.2s.9,0,1.3-.2v58.1l-2.7.5v-58.5Z"/>
  <path class="st10" d="M877.9,91.2c-.2,0-.3,0-.5,0-.4-11.9-1-39.1-1-69.1.6.6,1.2,1.5,1.8,2.6.8,1.5,1.6,3.4,2.2,5.5,1.4,4.3,2.4,9.6,3.3,15.3,1.7,11.4,2.4,24.1,2.5,32.4l-6.8,13.5c-.5-.1-1-.2-1.5-.2ZM830.2,119.3c8.9-7.1,19.5-14.1,26.5-18.4l15.1-.8c.2.6.6,1.2,1,1.7-9.9,6.2-33.1,20.4-59.1,35.6.2-.9.7-1.8,1.3-2.8.9-1.5,2.1-3,3.6-4.7,3-3.3,7.1-6.9,11.6-10.5ZM880.2,104v87.2s0,0,0,0c-.3,0-.7,0-1.2.1-.9,0-2,.2-3.3.3v-87.7c.7.3,1.5.4,2.3.4s1.6-.1,2.3-.4ZM920,129c-10.6-4.2-21.9-9.9-29.1-14l-8.3-12.7c.5-.5.8-1,1.1-1.6,10.4,5.6,34.1,18.7,60,33.7-.9.2-1.9.3-3.1.3-1.7,0-3.7-.3-5.8-.8-4.4-1-9.5-2.7-14.8-4.8ZM882.4,97.8c0,2.5-2,4.5-4.5,4.5s-4.5-2-4.5-4.5,2-4.5,4.5-4.5,4.5,2,4.5,4.5Z"/>
  <path class="st10" d="M1202,151.2c-1.2.3-.9,1.2,0,2.1.3,1,.7,2.7.9,3.7.3,1.2,1.5.6,2.8.3,1.2-.3-.3-3.4-.6-4.9-.3-1.5-1.8-1.5-3.1-1.2Z"/>
  <path class="st10" d="M1182.1,163.7c-.7.2-4.2,1.7-5.8,2.4,0,.5.2,1.5.9,1.2h0c.9-.3,3.7-1.2,4.3-1.5.6-.3.9-.9.6-2.1Z"/>
  <path class="st10" d="M1056.1,182.4c-5.1-11.3,21.7-21.4,35.8-25.1-7.7,3.4-4,4.6,15.9,7.3,19.9,2.8,24.5,2.8,34.9,1.2.3,2.8,0,8-2.8,8.9-2.8.9-7.7,3.4-12.2,7.6l-38.8,6.7c-7.4-.7-24.4-3.1-32.7-6.7Z"/>
  <path class="st10" d="M1151.6,205.9c.9-.5,3.1-1.7,4.6-2.4,1.5-.7,27.1-12.7,39.8-18.7,0-2.9.7-9.8,3.4-14.7,4.3-7.8,9.2-8.6,8.6,3.4M1207.8,177.8c1.3-1.6,4.6-5.6,4.6-7v-4.3c0-3.7,0-4.6-.6-6.1-.5-1.2-1.2-3.2-1.5-4,.2-1.3.5-4.2,0-5.2-.6-1.2-3.1-3.4-7-5.8-4-2.4-8.6-5.8-17.7-8s-22.3.3-25.4,5.8c-3.1,5.5-6.4,12.5-9.2,17.4-2.2,3.9-6.4,5.1-8.3,5.2"/>
  <path class="st10" d="M1127.7,182.4c-5.5,3.4-3.7,9.8-22.9,13.8-19.3,4-22.9,6.7-37.6,2.4-14.7-4.3-9.5-2.8-11.3-3.7-1.8-.9-7-9.2.6-19.3"/>
  <path class="st10" d="M1055.8,181.7c-.8.6-2,2.2,0,3.7,2.4,1.8,3.1,2.8,11.6,4.6,8.6,1.8,15.9,3.1,23.9,1.5,6.4-1.2,25.3-5.2,34-7"/>
  <path class="st10" d="M1054.9,184.5l1.8,4.9c.2.5,2.1,1.9,8,3.4,0-2.1-.3-3.1,2.1-2.4,2.4.6,3.4,0,3.4,3.7,2.1.6,9.5,2.1,13.1,1.8,3.7-.3,10.1-4.6,16.2-5.8"/>
  <path class="st10" d="M1056.7,189.4c.2.8.9,2.6,2.1,3.1,1.2.5,4.4,1.4,5.8,1.8,0,.4.2,1.3,1.2,1.5,1.2.3,4,1.5,4,.6,1.2.3,8.6,1.8,12.2,1.5,1.5-1,2.7-2,3.1-2.4"/>
  <path class="st10" d="M1054.3,178.7c-2.2,2.2-6.7,7-6.4,8.3.3,1.5,4,10.7,6.4,11.9,2.4,1.2,18.7,6.1,21.4,5.8,2.8-.3,5.5-3.7,28.4-8.3"/>
  <path class="st10" d="M1051.2,194.9c.4,2.3,1.4,7.1,1.8,7.3.6.3,7.9,4.3,20.8,6.7,2.7.5,8.3.6,10.7.6,1.1-2,3.7-6.2,4.9-6.7"/>
  <path class="st10" d="M1077.5,204.4c6.1-1.2,25.4-3.1,28.4-3.4,3.1-.3,6.4-.3,8.6,4,1.7,3.4,3.4,7.8,4,9.5-1.3,1.5-4.3,4.7-5.5,4.9-1.5.3-17.4,1.2-22,.6s-5.2-2.4-8.9-8.3c1.5-.7,2.1-1.6,2.4-2.1M1048.2,187.9l-.9.9,2.5,10.1c-1.3.6-3.2,3.3,0,9.2,2-3.4,3.1-5.3,3.4-5.8"/>
  <path class="st10" d="M1050,198.6l.9.6,1.8,3.1"/>
  <path class="st10" d="M1050,208.4c8.5,3.5,30.7,10.9,41,11.6"/>
  <path class="st10" d="M1090.7,220c7.8,1.1,25.6,2,35.2-3.4-2.8-2.8,1.8-21.1,10.1-27.8,6.9-5.6,15.9-4,15.9,8.9s-1.2,6.4-.3,8.3"/>
  <path class="st10" d="M1206.8,179.9c-.4,2.9-1.2,5.4-2.2,7.2-.5.9-1,1.5-1.5,2-.5.4-.9.6-1.3.5-.4,0-.8-.3-1.1-.8-.4-.5-.7-1.3-.9-2.3-.5-1.9-.6-4.6-.2-7.5.4-2.9,1.2-5.4,2.1-7.2.5-.9,1-1.5,1.5-2,.5-.4.9-.6,1.3-.5.4,0,.8.3,1.1.8.4.5.7,1.3.9,2.3.5,1.9.6,4.6.2,7.5Z"/>
  <path class="st10" d="M1207.5,180c-.5,3.4-1.4,6.5-2.6,8.6-.6,1.1-1.2,1.8-1.8,2.4-.6.5-1.2.7-1.6.6-.5,0-1-.4-1.4-1-.4-.6-.8-1.6-1.1-2.7-.6-2.3-.7-5.5-.2-8.9.5-3.4,1.4-6.5,2.6-8.6.6-1.1,1.2-1.8,1.8-2.4.6-.5,1.2-.7,1.6-.6.5,0,1,.4,1.4,1,.5.6.8,1.6,1.1,2.7.6,2.3.7,5.5.2,8.9Z"/>
  <path class="st10" d="M1182.1,136.8c-6.5-1-22.6-2.9-34.6-2.4-15,.6-26,1.8-35.2,7.6-9.2,5.8-18.3,14.7-20.8,15.3"/>
  <path class="st10" d="M1115.4,140.4c6.1-.1,23.6.3,44.7,2.8"/>
  <path class="st10" d="M1127.7,136.2c-1.6.5-4.4,1.5-2.4,1.5s8.6.3,14.7.6c6.1.3,15.6,1.5,18,.6,2.5-.9,5.8-1.8,7.3-2.1,1.5-.3,7.3-.9-22.3-2.1"/>
  <path class="st10" d="M1173.3,160.3c1.7-.5,4.6-1.6,7.3-2.5M1180.6,157.8c4.6-1.5,9.9-3.5,13.2-5.2,5.1-2.7,7-5,7.3-5.8-1.3-1.3-5.9-4.5-13.8-6.4-9.8-2.4-19.3.3-23.9,3.4-4.6,3.1-9.8,16.2-11.6,22-.9,3.4,1.8,7,1.8,17.4v19c.3-.2,1.1-.7,1.8-1.2.9-.6,22.3-10.4,26.3-12.2l-.6-1.2,1.5-6.1c.3-4.5.7-14.3,0-17.4-.7-3.2-1.7-5.4-2.1-6.2ZM1160.1,159.7c.7-.5,2.3-1.5,2.8-1.5s6.1.6,8.9.9"/>
  <path class="st10" d="M1197.4,150.5l3.4,3.1c.4,2.2.8,7.6-.6,11.3-1.8,4.6-4.9,14.1-6.1,15.9-1.2,1.8-1.2,3.4-12.2,8"/>
  <path class="st10" d="M1180.6,157.6v-.6l-4.9-17.1"/>
  <path class="st10" d="M1156.1,154.8l2.8,7-4.6,1.5M1154.3,163.4l1.5,1.5.6,1.2,13.5-.6c.8-.4,2.6-1.5,3.1-2.8.5-1.2.6-1.9.6-2.1l-1.8-1.5c-2.1.2-7.4.6-11.3.6s-.9,1.5-1.8,3.4c-1.7.2-3.6.3-4.3.3Z"/>
  <path class="st10" d="M1158.9,163.1l-.9.3-.3,1.2,4.3,1.2"/>
  <path class="st10" d="M1158.6,163.4c4.1-.1,12.8-.8,15-2.8"/>
  <path class="st10" d="M1202,191.4c-2.1.6-7.3.2-9.8-.8-1.5-.6-2.1-2.1-2.4-2.6"/>
  <path class="st10" d="M1144,205.3c-.3,4.1-1.1,7.7-2,10.3-.5,1.3-1,2.3-1.4,3-.5.7-.9.9-1.2.8-.3,0-.6-.3-1-1-.4-.7-.7-1.8-.9-3.2-.5-2.7-.6-6.4-.3-10.5.3-4.1,1.1-7.7,2-10.3.5-1.3,1-2.3,1.4-3,.5-.7.9-.9,1.2-.8.3,0,.6.3,1,1,.4.7.7,1.8.9,3.2.5,2.7.6,6.4.3,10.5Z"/>
  <path class="st10" d="M1144,205.3c-.4,5-1.3,9.4-2.5,12.6-.6,1.6-1.2,2.8-1.8,3.6-.6.8-1.2,1.1-1.5,1.1s-.9-.4-1.3-1.3c-.5-.9-.9-2.2-1.2-3.9-.6-3.3-.8-7.8-.3-12.8.4-5,1.3-9.4,2.4-12.6.6-1.6,1.2-2.8,1.8-3.6.6-.8,1.2-1.1,1.5-1.1.4,0,.9.4,1.3,1.3.5.9.9,2.2,1.2,3.9.6,3.3.7,7.8.3,12.8Z"/>
  <path class="st10" d="M1138.4,222.7c-.9.3-5.3.6-13.2-.9-1.2-.5-2.1-2.4-2.4-3.4"/>
  <path class="st10" d="M1151.8,205.9l-7.3-1.5"/>
  <path class="st10" d="M1055.8,178.4c2.8,1.2,15.4,4.7,43.7,8.9"/>
  <path class="st10" d="M1090.1,161.6c-7.2,1.9-23.1,7.5-28.5,14.4"/>
  <path class="st10" d="M1152.5,163.7c-14.7,5.8-46,17.9-53.8,19.6M1128.3,168.3c-8.9,3.4-27.1,10.7-29.1,13.2"/>
  <path class="st10" d="M1091.6,192.8c0,1.2.5,3.7,2.5,3.7s8.8-.4,11.9-.6M1055.8,187.3c-.7-.4-2.2-1.3-2.5-1.8-.2-.5-.3-2.7-.3-3.7"/>
  <path class="st10" d="M1200.2,143.5l5.5.6,5.2,2.8-1.2.9-5.5-2.8-1.8-.3"/>
  <path class="st10" d="M1204.2,145l1.8-.9"/>
  <path class="st10" d="M1205.7,147.2c1,1.1,3.1,3.7,3.1,4.9s1,3.4,1.5,4.3"/>
  <path class="st10" d="M1165,134.6c.5-.7,2.1-2,4.3-1.5,0,1.2.4,1.9.6,2.1"/>
  <path class="st10" d="M1177.2,165.5c-.3-1.5.3-1.5.9-1.8s2.1-.9,2.4.6"/>
  <path class="st10" d="M1180.9,166.1c-.6,1.1-2.1,2.9-3.1,1.2"/>
  <path class="st10" d="M1195.9,157c0,.4.2,1.2.9.9.9-.3,3.4-1.5,3.4-2.1v-1.5c-.8.7-2.9,2.3-4.6,2.8"/>
  <path class="st10" d="M1196.8,156.4c-.2-.5-.4-1.6.3-1.8.9-.3,1.5-.6,1.8.6"/>
  <path class="st10" d="M1199.3,156.7c0,.4.1,1.3-.6,1.8-.9.6-1.5.3-1.8-.6"/>
  <path class="st10" d="M1097.7,152.9l-.6-.6-2.8.6c-.2.5-.6,1.8-.6,3.1"/>
  <path class="st10" d="M1097.7,152.9c-.8-.8-2.9-2.1-4.9-.6-2,1.5-.8,3.5,0,4.3"/>
  <path class="st10" d="M1092.8,152.3l1.5.9"/>
  <path class="st10" d="M1154,204.6c.2-2,2-6.9,7.7-9.8,5.6-2.9,23.3-14.3,31.5-19.6"/>
  <path class="st10" d="M1306.9,68.4c.2-.3.8-.8,1.2-.8.5,0,1.6.6,2.1,3.7M1303.3,71.7c0,.3,0,1-.5,1.2-.7.3-2.7.2-1.2,2.4M1302.7,67.2h.9M1303.5,67.2c0-.3.2-.8.8-.6.6.1.5.5.4.7.3.1.9.5.3,1.1,0,0,.2-.4-.5-.5-.6,0-.9-.4-.9-.6Z"/>
  <path class="st10" d="M1304.7,67.9l-1.3.7M1303.4,68.6l-1.5-1.8M1303.4,68.6l-.7,1.6c-.4,0-1.4.2-1.9.3-.7,0-1.5,0-1.4-.5M1312.7,74.8c1.7-.9,5.8-2.8,9.2-2.9,4.2,0,7.2,1,6.7,1.7-.5.7-2-.7-6.6.1-4.6.8-7.3,2.6-8.4,3.4M1312.4,79.1c-.5.6-1.5,2.6-1.4,5.9,0,.6-1-.4-1.1-2.9"/>
  <path class="st10" d="M1287.8,58.4l.5-.7M1291.1,61c.4-.6,1.6-1.7,3.2-1.6M1296.1,51.8v.7c-1.3.4-3.9,1.2-4.2,1.6-.3.4.4,1.6.8,2.2l2.9,1,1.7-2.3,1.4,2.8c-.5.6-1.6,1.9-2.1,2.2-2.3-.7-7.1-2.1-9.1-2.7-2-2.1-.9-4.9,0-6.1,0-.1-.4-.5-.8-1.2,1.4-1.5,4.4-1.6,5.7-1.4l7,1.6-.5.9-7.8,1.6"/>
  <path class="st10" d="M1296.1,52.5l.3.8-.5.6,1.1,1.3c-1.7,1.9-3.2,1.4-3.8.9v-.3M1295.9,53l-3.1,1.1v.5M1292.9,54.5c-1.3-.1-4.2-.7-6-2.2M1292.9,54.5l.3,1.2M1293.2,55.7c-1.5,0-5-.7-6.8-2.2"/>
  <path class="st10" d="M1302.9,69.1c.4.4,1.3,1.4,1.5,1.5.2.2.8-.2.3-.7-.3-.3-.7-.6-.9-.9M1303.4,68.8c0,0,.2.2.3.3M1303.7,69.1l1-.2v-.3c-.1,0,2.1-.3,2.1-.3l.2.2-.5.2v.4"/>
  <path class="st10" d="M1305.5,73l-1-1M1304.5,72l1.8-1.9M1304.5,72l-.5.3-1.6-1.6.7-1.3M1306.3,70.1l1.3,1.3-.2.2M1306.3,70.1l-1.2-1h2.4c1.4,1,4.5,3.6,5.4,4.5-.3,1.2,0,2.5.2,3M1306,73l1.4-1.4M1307.4,71.6l4,3.6"/>
  <path class="st10" d="M1274.9,89.8l-2.1,1.3c.1.6.5,1.8.7,2.3,1.3.4,1.7.5,1.8.4l.2-3.7"/>
  <path class="st10" d="M1275.3,93.8c2.9.4,8.9,1.3,9.6,1.3.9,0,.5-.6,4.1-.8"/>
  <path class="st10" d="M1294.2,94.6l-1.6-1.2M1290.7,92l2,1.5M1292.7,93.5l-1.3-4.8M1294.6,96.6l-.8.5.4.8M1295.4,100.2l1.3-.8M1295.4,100.2l-1.2-2.3M1295.4,100.2l-14.7,9-1.2-1.7,14.6-9.6"/>
  <path class="st10" d="M1299.6,88.4l6.8-1.4M1308.1,86.7l-1.8.4M1302.1,84.2c0,.3,0,.8.9.8,1.1,0,1.5.3,1.9.5.3.2.5-.7.5-1.1-.9,0-2.7-.2-2.8-1.1M1300.2,87.3l1.2.2.4-1.1c1-.2,3.1-.6,3.6-.2.5.4.8.8.9.9"/>
  <path class="st10" d="M1303.6,77.5l1.4-1.5c.1-.4.4-1.4.5-1.7.2-.4-.1-.8-.3-.9l.5-.5,4.4,3.9"/>
  <path class="st10" d="M1303.5,75.1l-.8-1-2.4,2.1.8.9,2.4-1.9ZM1303.5,75.1c.7,0,1.2.5,1.4.8"/>
  <path class="st10" d="M1297.2,91.6c.9-.8,3-2.5,3.9-2.4,1.1,0,9.5,1.5,7.8,0M1309,88.9c.5.2,1.4.7,1.2,1.6-.4,1.9-7.7.3-8.9.2-.4,0-1.8.9-2.5,1.4"/>
  <path class="st10" d="M1309.2,87l-.2,2.3M1309.1,91.3c-.2,1.7-.6,5.7-.7,6.4-.1.9-1.5,1.1-2.4,1.4-.8.3-3.7,1.3-5.1,1.7-.2.2-.6.6-1.2.4-.7-.3-5.2-2.3-5.7-6.7-2.4.9-4.4.3-5.7-.6"/>
  <path class="st10" d="M1308.2,86.6l-.4,3.3M1307.7,91.6c0,1.5-.2,4.6-.2,5.1,0,.6-.7,1.2-7.1,3.1"/>
  <path class="st10" d="M1298.7,96.2c.2.8.6,2.5.7,2.8M1299.4,99c.2.4,1.6,1.2,1,1.8-.7.5-1.6-.1-1.9-.6M1299.4,99c.2,1.2-1.1,1.3-1.8,1.1"/>
  <path class="st10" d="M1291.5,88.5c-.5.5-.9,3.2-.9,3.9,0,.6,0,1-1,1.6-1,.6-13.1-3.6-14.1-3.8-.8-.2-1-.9-.9-1.2-.3,0-1.5,0-3.4.2-2.3.3-4,2-3.9,1.5.6-2.1,7.2-3.7,10.4-4.2v1c0,0,12.9-.7,12.9-.7"/>
  <path class="st10" d="M1277.7,86.4c1.2-.8,5.4-2.7,12-3.5"/>
  <path class="st10" d="M1294.9,81c1.3-1,4.4-3.4,5.8-4.5,0,1,0,1.4-.9,2.3-1,.9-4.3,4-4.6,4.8"/>
  <path class="st10" d="M1297.1,88.2l2.2.6,4.1-6.7c1.1,1.3,3.6,4.1,4.7,4.5,1.1.5,2.3.9,2.7,1.1l-1.4-4.7,2.7-4"/>
  <path class="st10" d="M1317.7,83.8l-6.7-5.9M1310.9,77.9l-1.1-1,1.7-1.9,1,1-1.7,1.8Z"/>
  <path class="st10" d="M1312.4,76.2l6.8,5.9"/>
  <path class="st10" d="M1290.7,85.5c-.7-.4-1.2-1.3-.6-2.4-.7-.3-.7-.8-.6-1l-.9-1c-1.6-.4-5.7-1.2-9.4-1.1-4.6,0-5.4-4.4-4.5-6.6,2.7.5,5-1.3,8.3-1,2.6,1.3,8.3,4.4,10.8,5.8.4.4,1.3,2,1.3,5.6M1290.7,85.5c-.2,1,.5,2.2,1.1,3.4.6,1.3,2,4.5,2.3,5.4.3.9.5,2.1,1.5,3.2,1.2-.6,5.7-2.7,7.8-3.8-.2-.7-1.1-2-3.3-1.4-1.7-.4-2.6-.5-2.8-.5l-.6-1.5c.2-.2.6-.9.4-1.8-.3-1.1-.6-3.8-1.3-3.8-.2-.6-.6-.9-.8-.9M1290.7,85.5c2.4.2,3.9-1,4.4-1.6"/>
  <path class="st10" d="M1274.8,73.5c-.5-.3-1.2-1.3-.2-2.7,1.3-1.8,2.9-5,4.9-7.3,1.6-1.9,4.4-4.4,5.6-5.4l2.3.3c1.3.7,3.9,2.4,3.6,3.5-.3,1.5,1.4,3,1.2,3.9.6.6,3,.8,3.8.7,0,1,0,2.3.2,2.8-1,.5-4.1,1.1-9.2,0-.6-.3-2.4-4.8-.5-8.2"/>
  <path class="st10" d="M1296.2,66.6c.5-.1,1.4-.3,1.7,0,.3.4,3.5-.3,4,0M1301.6,67.7l.9,1-.7,1.6M1301,67.7l.6,1.1-.7,1.5"/>
  <path class="st10" d="M1297.9,66.6l.2,2.8"/>
  <path class="st10" d="M1286.7,68.6c0,.4-.3,1.4-1.5,1.9-1.2.5-2,1.5-2.2,1.9"/>
  <path class="st10" d="M1300.4,78c.4-.3,3-.8,10-.6"/>
  <path class="st10" d="M1326.9,87.8c.2,0,.4,0,.6,0,2.1-.1,3.9,1.5,4,3.6.1,2.1-1.5,3.9-3.6,4-2.1.1-3.9-1.5-4-3.6,0-.4,0-.8.1-1.2l.9.8c0,.1,0,.2,0,.4,0,1.5,1.4,2.7,3,2.6,1.5,0,2.7-1.4,2.6-3,0-1.4-1.2-2.5-2.6-2.6l-1.1-1Z"/>
  <path class="st10" d="M1327.6,93.1l-10.2-9,2-2.3,8.9,8-.7,3.4Z"/>
  <path class="st10" d="M1328.3,100.7c5-.3,8.9-4.6,8.6-9.6-.3-5-4.6-8.9-9.6-8.6-1.7,0-3.2.6-4.6,1.5l-1.7-1.5c1.7-1.3,3.8-2.1,6.1-2.2,6.2-.3,11.6,4.4,11.9,10.7.3,6.2-4.4,11.6-10.7,11.9-6.2.3-11.6-4.4-11.9-10.7-.1-2.5.5-4.9,1.8-6.8l1.7,1.5c-.9,1.5-1.4,3.3-1.3,5.2.3,5,4.6,8.9,9.6,8.6Z"/>
  <g class="st0">
    <path class="st6" d="M1303.4,93.8c.3.6.3,1.3.1,1.9s-.7,1.1-1.3,1.4c-.6.3-1.3.3-1.9.1-.6-.2-1.1-.7-1.4-1.3l2.3-1.1,2.3-1.1Z"/>
  </g>
  <circle class="st7" cx="1298.1" cy="97.2" r=".5"/>
  <circle class="st8" cx="1305.9" cy="93.5" r=".7" transform="translate(-3.2 72.9) rotate(-3.2)"/>
  <circle class="st11" cx="1305.2" cy="95.9" r=".5"/>
  <g class="st5">
    <path class="st3" d="M1287.4,102.3l-.8.6.6.7.8-.5-.5-.8ZM1290.7,100.2l.6.8.9-.6-.6-.9-.8.6ZM1292,102.3l.9-.4-.5-1-.9.6.5.9ZM1288.6,104.4l-.5-.9-.7.4.3.8.9-.4ZM1281.7,116.2c4.9-.3,8.7-4.5,8.4-9.4h-2c.2,3.9-2.7,7.2-6.5,7.4v2ZM1272.3,107.8c.3,4.9,4.5,8.7,9.4,8.4v-2c-3.9.2-7.2-2.7-7.4-6.5h-2ZM1280.7,98.4c-4.9.3-8.7,4.5-8.4,9.4h2c-.2-3.9,2.7-7.2,6.5-7.4v-2ZM1288.2,101.7c-1.7-2.2-4.5-3.5-7.5-3.3v2c2.4-.1,4.5.9,5.9,2.6l1.6-1.3ZM1290.2,99.3l-3.3,2.2,1.1,1.7,3.3-2.2-1.1-1.7ZM1291.5,99.6c-2.5-3.3-6.6-5.4-11-5.1v2c3.9-.2,7.3,1.5,9.4,4.3l1.6-1.2ZM1280.5,94.4c-7.1.4-12.5,6.5-12.1,13.6h2c-.3-6.1,4.3-11.2,10.3-11.6v-2ZM1268.4,108c.4,7.1,6.5,12.5,13.6,12.1v-2c-6.1.3-11.2-4.3-11.6-10.3h-2ZM1281.9,120.2c7.1-.4,12.5-6.5,12.1-13.6h-2c.3,6.1-4.3,11.2-10.2,11.6v2ZM1294.1,106.6c0-1.7-.5-3.2-1.2-4.7l-1.8.8c.6,1.2.9,2.5,1,4h2ZM1289.1,105.3l3.4-2.1-1-1.7-3.4,2.1,1,1.7ZM1290.1,106.8c0-1-.3-1.9-.6-2.8l-1.9.7c.3.7.4,1.4.5,2.2h2Z"/>
  </g>
  <g class="st4">
    <path class="st3" d="M1284.3,104.4l.6.8,1-.7-.8-.9-.7.7ZM1285.4,106.3l1-.2-.3-1.4-1.2.7.5.9ZM1283.6,107.5l-.5-.9-.4.3v.5s1,0,1,0ZM1282.7,105.4l-.6.8.6.4.6-.4-.5-.8ZM1285.1,103.7c-1-1.1-2.5-1.7-4.1-1.6v2c1.1,0,2,.3,2.7,1l1.5-1.4ZM1280.9,102c-2.9.2-5.1,2.7-5,5.6h2c0-1.9,1.3-3.5,3.1-3.6v-2ZM1275.9,107.6c.2,2.9,2.7,5.1,5.6,5v-2c-1.9.1-3.5-1.3-3.6-3.1h-2ZM1281.5,112.6c2.9-.2,5.1-2.7,5-5.6h-2c0,1.9-1.3,3.5-3.1,3.6v2ZM1286.5,107c0-.3,0-.6-.1-.9l-1.9.4c0,.2,0,.4,0,.6h2ZM1284.1,108.3l1.8-1.1-1-1.7-1.8,1.1,1,1.7ZM1281.4,110.6c1.7,0,3-1.5,3.2-3.1h-2c0,.5-.6,1.1-1.3,1.1v2ZM1277.9,107.5c.1,1.8,1.7,3.3,3.5,3.2v-2c-.9,0-1.5-.5-1.5-1.3h-2ZM1281,104c-1.8.1-3.3,1.7-3.2,3.5h2c0-.9.5-1.5,1.3-1.5v-2ZM1283.3,104.7c-.6-.5-1.4-.8-2.2-.7v2c.5,0,.8,0,1,.3l1.2-1.6ZM1283.8,103.5l-1.7,1.1,1.1,1.7,1.7-1.1-1.1-1.7Z"/>
  </g>
  <circle class="st9" cx="1299.6" cy="69.5" r=".5"/>
  <path class="st10" d="M1299.2,69.3h-1c-.3.2-1.1.5-1.9,0"/>
  <template id="transover-popup-template" xmlns="">
    <style>
      .st0 {
        mask: url(#mask);
      }

      .st1 {
        fill-rule: evenodd;
      }

      .st1, .st2 {
        fill: #fff;
      }

      .st3 {
        fill: #c1c1c1;
      }

      .st4 {
        mask: url(#mask-2);
      }

      .st5 {
        mask: url(#mask-1);
      }

      .st6 {
        stroke-width: 2px;
      }

      .st6, .st7, .st8, .st9, .st10, .st11 {
        fill: none;
        stroke: #c1c1c1;
      }

      .st7 {
        stroke-width: .4px;
      }

      .st7, .st8, .st9, .st11 {
        stroke-miterlimit: 4;
      }

      .st8 {
        stroke-width: 1px;
      }

      .st9 {
        stroke-width: .2px;
      }

      .st12 {
        fill: url(#linear-gradient);
      }

      .st12, .st13, .st14, .st15 {
        isolation: isolate;
        opacity: .4;
      }

      .st13 {
        fill: url(#linear-gradient3);
      }

      .st14 {
        fill: url(#linear-gradient1);
      }

      .st15 {
        fill: url(#linear-gradient2);
      }

      .st11 {
        stroke-width: 0px;
      }.pos_translation {
      padding-bottom: 3px;
    }

    strong {
      font-weight: bold;
    }

    .rtl {
      direction: rtl;
    }

    main {
      color: #333;
      max-width: 800px;
      font-family: Arial, sans-serif;
      font-size: 14px;
      font-weight: 300;
      letter-spacing: initial;

      background: #fcf7d9;
      text-align: left;
      border-style: solid;
      border-width: 1px;
      border-color: #ccc;
      box-shadow: rgba(0,0,0,0.2) 0px 2px 5px;
      border-radius: 5px;
      padding: 6px 8px 3px 8px;
      position: fixed;
      z-index: 2147483647;
      top: -1500px;
      left: 0;
      box-sizing: content-box;
      -webkit-font-smoothing: antialiased;
      font-smoothing: antialiased;
      text-rendering: optimizeLegibility;

      /* To fix the following issue:
      1. Have translate on hover enabled (opposed to translate on click).
      2. Wisit a website that has a dropdown menu that opens on hover.
      3. Open the menu.
      4. Hover over a word within that menu.
      5. Incidentally move the cursor over the TransOver popup.
      The hover menu gets closed.
      */
      pointer-events: none;
    }

    .pos_translation {
      font-size: 1em;
      line-height: 1.3em;
    }

    .red {
      color: red;
    }

    .from_lang {
      color: grey;
      font-size: 0.8em;
      line-height: 1.2em;
      margin-top: 2px;
      margin-bottom: 3px;
    }
    </style>
    <main translate="no"/>
  </template>
</svg>