<svg width="24" height="24" viewBox="0 0 24 24" fill="none" xmlns="http://www.w3.org/2000/svg">
<rect width="24" height="24" rx="3" fill="#35363B"/>
<path d="M17 6.5H7C6.72386 6.5 6.5 6.72386 6.5 7V17C6.5 17.2761 6.72386 17.5 7 17.5H17C17.2761 17.5 17.5 17.2761 17.5 17V7C17.5 6.72386 17.2761 6.5 17 6.5Z" stroke="white" stroke-width="1.5" stroke-linecap="round" stroke-linejoin="round"/>
<path d="M15 5.5V7.5" stroke="white" stroke-width="1.5" stroke-linecap="round" stroke-linejoin="round"/>
<path d="M9 5.5V7.5" stroke="white" stroke-width="1.5" stroke-linecap="round" stroke-linejoin="round"/>
<path d="M6.5 9.5H17.5" stroke="white" stroke-width="1.5" stroke-linecap="round" stroke-linejoin="round"/>
<path d="M12 13C12.4142 13 12.75 12.6642 12.75 12.25C12.75 11.8358 12.4142 11.5 12 11.5C11.5858 11.5 11.25 11.8358 11.25 12.25C11.25 12.6642 11.5858 13 12 13Z" fill="white"/>
<path d="M14.75 13C15.1642 13 15.5 12.6642 15.5 12.25C15.5 11.8358 15.1642 11.5 14.75 11.5C14.3358 11.5 14 11.8358 14 12.25C14 12.6642 14.3358 13 14.75 13Z" fill="white"/>
<path d="M9.25 15.5C9.66421 15.5 10 15.1642 10 14.75C10 14.3358 9.66421 14 9.25 14C8.83579 14 8.5 14.3358 8.5 14.75C8.5 15.1642 8.83579 15.5 9.25 15.5Z" fill="white"/>
<path d="M12 15.5C12.4142 15.5 12.75 15.1642 12.75 14.75C12.75 14.3358 12.4142 14 12 14C11.5858 14 11.25 14.3358 11.25 14.75C11.25 15.1642 11.5858 15.5 12 15.5Z" fill="white"/>
<path d="M14.75 15.5C15.1642 15.5 15.5 15.1642 15.5 14.75C15.5 14.3358 15.1642 14 14.75 14C14.3358 14 14 14.3358 14 14.75C14 15.1642 14.3358 15.5 14.75 15.5Z" fill="white"/>
</svg>
