<svg width="20" height="21" viewBox="0 0 20 21" fill="none" xmlns="http://www.w3.org/2000/svg">
<rect y="0.5" width="20" height="20" rx="10" fill="#CC0000"/>
<path d="M14.7307 5.4231H14.0384C13.8538 5.4231 13.6923 5.58463 13.6923 5.76925V7.38463C13.6923 7.59233 13.5769 7.68463 13.4153 7.54617C13.3461 7.45387 13.2769 7.38463 13.1846 7.3154C12.0307 6.16156 10.4153 5.67694 8.7538 6.00002C8.17688 6.1154 7.62304 6.34617 7.13842 6.66925C5.73073 7.59233 4.92303 9.09233 4.89996 10.7077C4.87688 11.9539 5.3615 13.2 6.23842 14.1C7.1615 15.0693 8.40765 15.6 9.74611 15.6C10.923 15.6 12.0307 15.1846 12.9076 14.4462C13.0692 14.3077 13.0692 14.0769 12.9307 13.9385L12.4461 13.4539C12.3307 13.3385 12.123 13.3154 11.9846 13.4308C11.1538 14.1231 10.023 14.4 8.89227 14.1231C8.59227 14.0539 8.29227 13.9154 8.01534 13.7539C6.69996 12.9462 6.07688 11.4231 6.44611 9.90002C6.51534 9.60002 6.6538 9.30002 6.81534 9.0231C7.4615 7.89233 8.59227 7.26925 9.79227 7.26925C10.7153 7.26925 11.5923 7.63848 12.2384 8.28463C12.3538 8.37694 12.4461 8.49233 12.5153 8.60771C12.5846 8.79233 12.423 8.88463 12.2153 8.88463H10.6C10.4153 8.88463 10.2538 9.04617 10.2538 9.23079V9.94617C10.2538 10.1308 10.3923 10.2692 10.5769 10.2692H14.8C14.9615 10.2692 15.1 10.1308 15.1 9.96925V5.76925C15.0769 5.58463 14.9153 5.4231 14.7307 5.4231Z" fill="white"/>
</svg>
